<?xml version="1.0" ?><!DOCTYPE svg  PUBLIC '-//W3C//DTD SVG 1.1//EN'  'http://www.w3.org/Graphics/SVG/1.1/DTD/svg11.dtd'><svg enable-background="new 0 0 128 128" height="128px" id="Layer_1" version="1.1" viewBox="0 0 128 128" width="128px" xml:space="preserve" xmlns="http://www.w3.org/2000/svg" xmlns:xlink="http://www.w3.org/1999/xlink"><path d="M84,123h-2.466c-1.25-0.25-9.306-0.55-12.25-4c-1.863-2.184-1.98-8.687-1.968-10.809l0.649-32.464  C83.744,73.632,96,59.217,96,41.79c0-17.672-2.863-39.827-2.892-40.049C92.979,0.745,92.13,0,91.125,0h-54.25  c-1.004,0-1.854,0.745-1.983,1.741C34.863,1.963,32,24.118,32,41.79c0,17.427,12.255,31.842,28.035,33.938l0.649,32.464  c0.013,2.122-0.104,8.625-1.968,10.809c-2.945,3.45-11,3.75-12.25,4H44c-2.2,0-4,1.35-4,3c0,1.1,0.9,2,2,2h44c1.1,0,2-0.9,2-2  C88,124.35,86.199,123,84,123z M38.643,4h50.714c0.462,3.846,1.556,13.553,2.182,24H36.461C37.087,17.553,38.181,7.846,38.643,4z"/></svg>